Coordinates
version=1
nRows=14
nColumns=36
inDegrees=yes

Units are S.I. units (second, meters, Newtons, ...)
If the header above contains a line with 'inDegrees', this indicates whether rotational values are in degrees (yes) or radians (no).

endheader
time	pelvis_tilt	pelvis_list	pelvis_rotation	pelvis_tx	pelvis_ty	pelvis_tz	hip_flexion_r	hip_adduction_r	hip_rotation_r	knee_angle_r	knee_angle_r_beta	ankle_angle_r	subtalar_angle_r	mtp_angle_r	hip_flexion_l	hip_adduction_l	hip_rotation_l	knee_angle_l	knee_angle_l_beta	ankle_angle_l	subtalar_angle_l	mtp_angle_l	lumbar_extension	lumbar_bending	lumbar_rotation	arm_flex_r	arm_add_r	arm_rot_r	elbow_flex_r	pro_sup_r	arm_flex_l	arm_add_l	arm_rot_l	elbow_flex_l	pro_sup_l
      1.43333330	      1.03403245	      2.17027311	     -5.24809599	      0.24587321	      1.28754858	     -0.57514807	     -3.11508376	     -3.59740842	      3.31778200	      4.65559570	      0.08125547	      8.93944125	     -5.20602333	     -7.49999987	     -6.25484680	      1.65053166	     -5.02828487	      1.21066813	      0.02113014	     13.05571095	     -3.71357367	     -7.49999987	     -2.89544999	     -2.88559635	      6.74324183	      6.93758117	     -9.21033559	     24.57617319	     20.31814189	     85.46478761	      3.55139053	    -14.54116418	     32.79662996	     22.47993082	     81.87175198
      1.45000000	      1.04239331	      2.17638984	     -5.25853810	      0.25451656	      1.28819912	     -0.57803053	     -3.12822356	     -3.59710270	      3.31973430	      4.66428120	      0.08140706	      8.93816861	     -5.20514550	     -7.49999987	     -6.26575964	      1.65913386	     -5.03240425	      1.22133193	      0.02131626	     13.05356526	     -3.71558630	     -7.49999987	     -2.90174230	     -2.89083569	      6.74519822	      6.94441878	     -9.20681814	     24.57600761	     20.32017385	     85.46549685	      3.55632497	    -14.54251986	     32.79644722	     22.48106688	     81.87244881
      1.46666670	      0.97477310	      2.18114181	     -5.28627434	      0.25457297	      1.28752343	     -0.57839078	     -3.05738275	     -3.60632854	      3.38478968	      4.66916286	      0.08149227	      8.95100832	     -5.12801933	     -7.49999987	     -6.20576473	      1.66968261	     -5.15579760	      1.23048967	      0.02147610	     12.96998396	     -3.82751560	     -7.49999987	     -2.80903061	     -2.90142814	      7.08692777	      6.45540554	     -9.35586204	     23.35562386	     20.87427363	     88.22116111	      3.67544144	    -14.57964578	     33.26981881	     22.65926870	     84.47909149
      1.48333330	      1.00365163	      2.17368675	     -5.30240676	      0.25498763	      1.29163966	     -0.57783123	     -3.07464888	     -3.59697986	      3.51486682	      4.71910975	      0.08236400	      8.87045108	     -5.29993675	     -7.49999987	     -6.24885879	      1.67095611	     -5.07931905	      1.26657823	      0.02210596	     12.91501552	     -3.93542870	     -7.49999987	     -2.80035955	     -2.89894526	      7.00884735	      6.58682175	     -9.33286388	     24.28215967	     20.57357878	     84.71066140	      3.60105998	    -14.49295074	     33.45259913	     22.49694866	     81.01344534
      1.50000000	      1.06733702	      2.18165515	     -5.30759489	      0.25466222	      1.28377537	     -0.57834098	     -3.15863205	     -3.62518678	      3.38731491	      4.72373486	      0.08244473	      9.02309538	     -5.00659209	     -7.49999987	     -6.33362413	      1.69252870	     -5.25058891	      1.27383200	      0.02223256	     13.02916007	     -3.70864768	     -7.49999987	     -2.82890129	     -2.91212227	      6.86526994	      6.46177126	     -9.39812645	     24.11118091	     20.86713400	     85.34961297	      3.52289956	    -14.51358028	     33.40050885	     22.45536018	     81.63089438
      1.51666670	      1.02573855	      2.19197069	     -5.27496314	      0.25471878	      1.28440173	     -0.57793381	     -3.09416949	     -3.62887443	      3.41365270	      4.75553825	      0.08299980	      9.07844254	     -4.87628202	     -7.49999987	     -6.27124467	      1.68839595	     -5.09023388	      1.32166117	      0.02306734	     12.94354472	     -3.85046326	     -7.49999987	     -2.73194645	     -2.92907408	      7.04203548	      6.39736233	     -9.54327364	     25.22023426	     20.78116891	     84.80923335	      3.66771161	    -14.67897945	     34.61767006	     22.69629302	     81.15645470
      1.53333330	      1.08423567	      2.19894194	     -5.28894483	      0.25483024	      1.28750121	     -0.57806048	     -3.18239052	     -3.64095030	      3.61293691	      4.70875024	      0.08218320	      9.03762211	     -5.07507961	     -7.49999987	     -6.33519863	      1.69305460	     -5.07132095	      1.38113970	      0.02410544	     12.87573683	     -3.97508685	     -7.49999987	     -2.77320077	     -2.94196438	      7.18346810	      6.08403532	     -9.31906605	     22.22802016	     20.94796432	     88.77462988	      3.70052630	    -14.51207493	     33.26431222	     22.57587483	     84.47887059
      1.55000000	      1.11948116	      2.21783341	     -5.30803555	      0.25468932	      1.28865785	     -0.57788673	     -3.25442992	     -3.66678620	      3.70574722	      4.66784616	      0.08146928	      8.94104065	     -5.04738320	     -7.49999987	     -6.39419915	      1.70609466	     -5.15971061	      1.39395757	      0.02432915	     12.90834356	     -3.89155781	     -7.49999987	     -2.73918544	     -2.97623857	      7.11521825	      6.24054957	     -9.41618074	     23.65834459	     20.61689983	     87.11754125	      3.71353348	    -14.59271365	     33.95820591	     22.48340094	     82.72633672
      1.56666670	      1.17401789	      2.20794705	     -5.28877476	      0.25440833	      1.28830416	     -0.57838014	     -3.34973142	     -3.66284137	      3.75657842	      4.63372898	      0.08087383	      9.02163554	     -4.99471655	     -7.49999987	     -6.48606904	      1.70120427	     -5.02149744	      1.37008566	      0.02391251	     12.76225485	     -4.06890403	     -7.49999987	     -2.72794044	     -2.93698112	      6.96071271	      6.34756732	     -9.38399672	     24.19723193	     20.49575736	     85.03045264	      3.73361046	    -14.53832399	     34.24719668	     22.30602530	     80.90367832
      1.58333330	      1.19540899	      2.21847809	     -5.32106592	      0.25454423	      1.28875620	     -0.57798070	     -3.39247446	     -3.67324859	      3.85126403	      4.61899808	      0.08061672	      8.98749044	     -5.02006504	     -7.49999987	     -6.51605292	      1.71468914	     -4.99361679	      1.37484637	      0.02399560	     12.74587512	     -4.08030901	     -7.49999987	     -2.66663578	     -2.93369629	      7.06609804	      6.36544476	     -9.46862202	     24.83933673	     20.38593155	     84.54765968	      3.75747980	    -14.51871340	     34.77267846	     22.26400527	     80.44823367
      1.60000000	      1.23507712	      2.19403295	     -5.39131599	      0.25441339	      1.29196395	     -0.57809552	     -3.44954809	     -3.63666469	      4.12565452	      4.58725095	      0.08006263	      8.90144582	     -5.29744279	     -7.49999987	     -6.57620205	      1.69002906	     -5.07353181	      1.34681380	      0.02350634	     12.83225237	     -3.94564408	     -7.49999987	     -2.67693497	     -2.90962413	      7.01569890	      6.43678226	     -9.48799526	     25.66514915	     20.32892109	     82.04938146	      3.67188573	    -14.49830141	     34.97061239	     22.11607784	     78.55949843
      1.61666670	      1.29602197	      2.18858957	     -5.38100740	      0.25452089	      1.29230425	     -0.57768521	     -3.52517305	     -3.63988673	      3.96643195	      4.62076168	      0.08064751	      9.02819150	     -4.94855876	     -7.49999987	     -6.66199997	      1.69118578	     -4.90440473	      1.30652864	      0.02280323	     12.80910714	     -4.02803080	     -7.49999987	     -2.74215555	     -2.92209596	      7.19935395	      6.12762200	     -9.32013483	     22.44352137	     20.49364633	     89.95854479	      3.62405451	    -14.37338338	     33.07749680	     22.20518072	     85.31910251
      1.63333330	      1.33373223	      2.19311722	     -5.39980742	      0.25383975	      1.28838333	     -0.57831479	     -3.57076216	     -3.64668148	      3.98894545	      4.62265732	      0.08068059	      9.00939194	     -4.92776289	     -7.49999987	     -6.70992512	      1.71088588	     -4.85010560	      1.25600869	      0.02192149	     12.80332869	     -4.00583497	     -7.49999987	     -2.76428851	     -2.91211063	      7.10389374	      6.17478650	     -9.31076507	     22.70535660	     20.44231533	     89.60762416	      3.48820157	    -14.37121207	     32.84379039	     22.26659607	     84.88667541
      1.65000000	      1.34927067	      2.18147983	     -5.38331832	      0.25423680	      1.28897203	     -0.57799802	     -3.59621435	     -3.61826127	      4.10826525	      4.59686917	      0.08023050	      8.98944208	     -5.03417938	     -7.49999987	     -6.70344014	      1.68723971	     -4.71781142	      1.21782762	      0.02125510	     12.81038161	     -4.08949907	     -7.49999987	     -2.74915716	     -2.89512173	      7.08851696	      6.26853630	     -9.51654501	     24.90713523	     20.42480231	     86.54806041	      3.54666532	    -14.44478527	     34.27174706	     22.18322208	     82.82889649
